# xmcd
#
# Track frame offsets:
# 187
# 13415
# 29255
# 45287
# 59502
# 79480
# 93232
# 107645
# 122220
# 139015
#
# Disc length: 2045 seconds
#
#
# Revision: 6
# Processed by: cddbd v1.5.2PL0 Copyright (c) Steve Scherf et al.
# Submitted via: FreeRIP 2.951 
#
DISCID=8307fb0a
DTITLE=Hal Ketchum - Past the Point of Rescue
DYEAR=1991
DGENRE=Country
TTITLE0=Small Town Saturday Night
TTITLE1=I Know Where Love Lives
TTITLE2=Old Soldiers
TTITLE3=Somebody's Love
TTITLE4=Past The Point Of Rescue
TTITLE5=Five O'Clock World
TTITLE6=I Miss My Mary
TTITLE7=Don't Strike A Match (To The Book Of Love)
TTITLE8=Long Day Comin'
TTITLE9=She Found The Place
EXTD=YEAR: 1991
EXTT0=
EXTT1=
EXTT2=
EXTT3=
EXTT4=
EXTT5=
EXTT6=
EXTT7=
EXTT8=
EXTT9=
PLAYORDER=
